<?xml version="1.0" encoding="UTF-8" standalone="no"?>
<svg
   xmlns:dc="http://purl.org/dc/elements/1.1/"
   xmlns:cc="http://creativecommons.org/ns#"
   xmlns:rdf="http://www.w3.org/1999/02/22-rdf-syntax-ns#"
   xmlns:svg="http://www.w3.org/2000/svg"
   xmlns="http://www.w3.org/2000/svg"
   viewBox="0 0 36.026669 28.32"
   height="28.32"
   width="36.026669"
   xml:space="preserve"
   id="svg2"
   version="1.1"><metadata
     id="metadata8"><rdf:RDF><cc:Work
         rdf:about=""><dc:format>image/svg+xml</dc:format><dc:type
           rdf:resource="http://purl.org/dc/dcmitype/StillImage" /></cc:Work></rdf:RDF></metadata><defs
     id="defs6" /><g
     transform="matrix(1.3333333,0,0,-1.3333333,0,28.32)"
     id="g10"><g
       transform="scale(0.1)"
       id="g12"><path
         id="path14"
         style="fill:#421e16;fill-opacity:1;fill-rule:nonzero;stroke:none"
         d="m 128.867,154.863 c -0.238,0.242 -0.238,0.242 -0.484,0.242 0,0 -0.238,-0.242 -0.481,-0.242 0.243,0 0.243,-0.234 0.481,-0.234 0,0 0.246,0.234 0.484,0.234 z m -2.164,-12.726 c 0.242,-0.235 1.68,-0.235 1.926,0 0.715,0.488 1.68,1.691 1.68,2.168 0,0 -0.723,0.957 -1.442,0.957 -2.164,0.48 -2.644,1.437 -0.722,2.636 0.484,0.723 0.722,1.926 1.441,2.883 0,0.477 -0.719,0.965 -0.957,0.965 -2.406,0.481 -6.004,-2.402 -6.004,-5.281 0.957,-1.203 2.637,-2.637 4.078,-4.328 z M 110.387,125.34 c -0.242,0 -0.242,0 -0.242,0 0,0 0.242,0 0.242,-0.242 0,0.242 0,0.242 0,0.242 z m 8.636,14.64 c -0.48,0.965 -0.718,2.157 -1.441,2.157 -1.68,0.246 -2.398,-0.235 -2.398,-2.157 0,-0.48 0.242,-1.203 -0.239,-1.437 -2.882,-2.156 -3.843,-5.039 -4.558,-7.918 -0.242,-0.969 -1.684,-1.926 0,-2.16 1.676,-0.242 3.836,-0.965 4.558,0.715 0.239,3.847 5.039,6.484 3.121,10.8 0.239,0 0.477,0 0.957,0 z M 80.1406,109.734 c 4.3203,3.125 8.8828,6.008 12.7188,9.368 3.8437,3.601 8.8826,6.484 11.5236,10.8 0.957,2.637 2.883,5.039 4.32,7.196 0,0.722 0.242,0.722 0.242,1.445 0,0.234 0,0.48 0,0.957 -0.242,-0.234 -0.722,-0.234 -0.722,-0.477 -3.602,-4.082 -6.481,-8.164 -10.8011,-11.757 -0.9571,-0.489 -1.1992,-1.203 -1.6797,-2.168 -0.4805,-1.68 -1.6797,-2.16 -3.3594,-2.395 -2.6445,-0.965 -5.2812,-2.402 -6.2422,-4.324 -0.7226,-1.203 -0.9609,-1.438 -2.1562,-1.914 -2.8828,0 -6.0039,-3.125 -6.4844,-5.527 0,-0.715 0.4805,-1.204 0.9609,-1.915 0.4766,0.711 0.961,0.711 1.6797,0.711 z M 70.0586,23.5664 c 0.4805,0 0,0 0,0 -0.2422,0 -0.2422,0 -0.2422,-0.2422 h 0.2422 c 0,0.2422 0,0.2422 0,0.2422 z m -2.1602,18.9649 c -0.2382,-0.9649 -0.7187,-1.9219 -1.1992,-2.6446 -0.4804,-0.4804 0,-0.7226 0.4805,-1.4375 0.4805,0.7149 1.4414,0.7149 2.3984,1.6836 -0.7187,0.7227 -0.957,1.4336 -1.6797,2.3985 z m 0.7227,5.5195 c 0,0.2344 -0.9609,0.957 -0.9609,1.2031 -0.4805,-0.2461 -1.4414,-0.7266 -1.4414,-0.9687 -0.2383,-0.7149 0,-1.1914 0.4804,-1.6797 0.961,0.4883 1.4375,0.7226 1.9219,1.4453 z M 65.5,54.0469 v 0.2422 z m 0.4805,3.3594 c 0,0 0,0.246 0,0 -0.4805,0 -0.4805,0 -0.4805,-0.2344 0,0 0,0 0.4805,-0.4805 0,0.4805 0,0.4805 0,0.7149 z m -1.4414,35.7734 0.2382,0.4766 c 0,0 0,0 -0.2382,0.2343 v -0.2343 c 0,0 0,0 0,-0.4766 z m 0,-62.6484 c 0.2382,0 0.2382,0 0.7187,0 -0.4805,0.4804 -0.4805,0.7109 -0.7187,0.7109 0,0 -0.4766,0 -0.4766,-0.2305 z m -0.7227,48.4765 c -0.2383,0 -0.4766,-0.2344 -0.4766,-0.2344 0.2383,-0.4765 0.4766,-0.4765 0.4766,-0.4765 0.2461,0 0.2461,0.4765 0.7227,0.4765 -0.4766,0.2344 -0.7227,0.2344 -0.7227,0.2344 z m -0.4766,85.9332 h 0.2383 z m 0,-42.238 c 0.2383,0 0,0 0,0 h -0.4804 c 0,0 0,0 0.4804,-0.242 0,0 0,0 0,0.242 z m 0,37.676 c -0.4804,0.246 -0.4804,0.246 -0.7187,0.723 0,0 -0.4844,-0.477 -0.4844,-0.723 0,0 0,-0.234 0.4844,-0.477 0.2383,0.243 0.2383,0.477 0.7187,0.477 z M 61.8984,39.8867 v 0.7227 c -0.2382,-0.4766 -0.7187,-0.4766 -0.7187,-0.4766 0,-0.2461 0,-0.7265 0,-0.9687 0.4805,0.2422 0.7187,0.2422 0.7187,0.7226 z m -0.7187,4.8047 v 0.2344 z m 0,110.4136 c 0,0 0,-0.242 0,-0.476 -0.4844,-0.246 0,-0.246 0,-0.723 0,0.477 0,0.477 0.7187,0.957 -0.2382,0 -0.2382,0.242 -0.7187,0.242 z m 2.1601,-24.246 c -0.4804,0.477 -0.7187,0.477 -0.7187,0.477 -0.7227,0 -0.9609,-0.477 -1.9258,-0.711 0.4844,-0.246 0.4844,-0.246 0.4844,-0.969 0.7187,0.723 0.957,0.969 2.1601,1.203 z M 60.457,87.1719 v -0.2344 z m 0.7227,61.4491 c 0.4805,0.481 0,0.957 0,0.957 -0.7227,0 -0.9609,-0.234 -1.4414,-0.476 0,-0.481 0.4805,-0.481 0.7187,-1.204 0.7227,0.489 0.7227,0.723 0.7227,0.723 z m 0.7187,-92.8944 c -0.7187,0 -1.6796,0 -2.1601,0 -0.7227,-0.711 -0.961,-1.6797 -0.961,-2.3907 0,-0.9687 0.2383,-1.9257 0.4805,-2.8828 0.4805,-1.1992 0.4805,-2.4023 1.4375,-3.3593 0.4844,-0.4883 1.4414,-0.9649 1.4414,0.2343 0.4844,2.1563 0.4844,4.0821 0.7227,6.7188 0,0.2422 -0.2383,0.9687 -0.961,1.6797 z m 0,64.5744 c -0.7187,0.234 -1.2031,0.48 -1.6796,0.957 -0.4805,0 -1.4415,-0.477 -1.6797,-0.723 0.2382,0 0.7187,-0.476 1.1992,-0.957 0.957,0.481 1.4414,0.481 2.1601,0.723 z m -2.8828,7.199 c 0.2422,0.242 0.7227,0.723 1.2032,0.723 0,0.242 -0.4805,0.722 -0.4805,0.476 -0.7227,0 -0.961,-0.234 -1.1992,-0.476 0.2382,-0.481 0.4765,-0.723 0.4765,-0.723 z m 2.1641,-64.8086 c -0.4844,0.2422 -0.9609,0.7188 -1.9219,0.7188 -0.2422,0 -0.4805,-0.4766 -0.957,-0.7188 0.2383,0 0.7148,-0.2383 0.957,-0.2383 0.961,0.2383 1.4375,0 1.9219,0.2383 z m -2.8789,72.2496 c 0,0.243 -0.4805,0 -0.4805,-0.48 0.4805,0 0.4805,-0.242 0.7188,-0.242 0,0 0.2382,0 0.4765,0.242 -0.2383,0.48 -0.4765,0.48 -0.7148,0.48 z m 6.4765,-66.2457 c 0.7227,0.2344 0.7227,0.957 1.2032,1.1914 -0.4805,0 -1.2032,0.2461 -1.918,0.2461 -1.4414,0 -2.8828,0 -3.8437,0.4766 -1.2032,-0.4766 -1.918,0 -2.6407,-0.4766 -0.4804,0 -0.4804,-1.2031 0,-1.4375 0,-0.4883 0.961,-0.7226 1.4375,-1.2031 2.1641,0.2383 3.8438,0.7148 5.7617,1.2031 z m -6,44.8867 c 0.4805,0.481 1.4415,0.481 1.918,1.203 0.9649,0.711 2.1641,0.957 3.3672,1.434 -1.2031,0.246 -2.4023,0.722 -3.6055,0.957 -0.7187,0 -1.4414,0 -1.6797,0 -0.4765,-0.711 -1.9179,-1.434 -1.9179,-1.68 0,-2.391 0.2383,-2.879 1.9179,-1.914 z M 57.0977,73.4883 c 0,-1.4336 1.2031,-1.9141 1.9179,-0.4766 1.2032,0.7227 2.1641,0.7227 3.1211,1.4336 0.4844,0.2461 1.2031,0.7266 1.4414,0.7266 -0.2383,0 -0.7187,0.7226 -0.957,0.7226 -1.9258,0.7188 -3.6055,1.4336 -2.8828,3.6016 0.7187,1.1914 0.7187,2.3945 2.3984,3.8398 1.9258,1.4336 3.8438,3.6016 3.3633,6.2383 -0.2422,0.4805 -1.6836,0.7227 -1.6836,0.7227 -1.1953,-2.168 -2.6367,-1.9258 -5.0391,-0.2422 -0.2382,0.2422 -0.957,0 -1.6796,0 0.4804,-0.4805 0.4804,-0.957 0.4804,-1.2031 -0.4804,-1.9141 -0.4804,-3.3594 -0.4804,-5.0391 -0.2383,-0.957 -0.7188,-1.4336 -0.7188,-2.1602 0.4805,-2.8789 0.4805,-5.5234 0.7188,-8.164 z m 1.9179,33.1327 c -0.2383,2.402 1.4414,1.922 2.6446,1.199 1.1992,-0.476 1.1992,-0.242 0.9609,0.957 0,0.723 0.7187,1.446 0.7187,1.68 0,0.481 -0.7187,1.203 -1.2031,1.203 -1.4414,0.242 -5.2773,-1.437 -6.2383,-2.883 -0.957,-1.199 0,-3.601 2.4024,-3.601 0,0.242 0.7148,1.199 0.7148,1.445 z M 47.2578,91.0117 c 0.7188,0.4844 0.957,0.9649 1.4414,1.1992 -0.4844,0.2422 -0.4844,0.2422 -0.4844,0.2422 -0.7148,0 -0.957,-0.2422 -1.9179,-0.7187 0.4804,-0.2383 0.9609,-0.7227 0.9609,-0.7227 z M 33.0938,198.543 c -2.1563,0.246 -4.5586,-0.234 -6.2383,0 -2.1602,0.246 -4.8008,-0.711 -6.2422,2.168 -0.4766,0.957 -3.5977,1.191 -5.2774,0.957 -3.5976,0.234 -6.96481,-0.723 -10.32418,-0.723 -1.67969,0 -3.59766,1.203 -4.558595,1.926 -0.71875,0.711 -0.4804688,2.156 0,3.359 1.917965,3.36 5.761715,5.04 10.320275,5.04 6.961,0 13.9219,0.476 20.8868,0.96 10.3164,0 20.8789,0.719 31.1992,-0.96 8.1601,-0.961 16.0781,-2.883 24.2422,-4.563 2.6367,-1.434 6.2422,-1.922 8.6406,-4.316 0,-0.243 0,-0.489 0.4805,-0.489 6.4803,-0.234 10.3203,-5.273 15.8403,-7.429 2.644,-0.723 3.839,-3.125 6.242,-5.051 0.238,-0.477 0.718,-0.711 0.961,-0.711 3.597,-1.445 5.757,-5.039 8.398,-7.688 0.481,-0.234 0.965,-1.199 1.203,-2.156 0.477,-1.445 0,-3.125 0.477,-4.804 0,-0.958 0,-2.161 0,-3.118 0.242,-0.722 0.722,-1.445 0.965,-2.156 1.918,-1.445 3.117,-3.125 2.394,-5.527 0,-0.481 0.723,-1.203 0.723,-1.68 0.238,-1.437 2.16,-1.914 1.203,-3.359 -0.723,-0.235 -0.723,-0.723 0,-0.723 2.394,-2.395 0.957,-4.551 -0.723,-6.953 -0.48,-1.203 -1.203,-2.16 -0.48,-3.848 1.203,-2.16 0,-4.074 -1.442,-5.039 -0.718,-0.957 -1.675,-2.16 -1.675,-2.883 0,-4.316 -1.926,-7.441 -5.286,-10.312 -2.16,-1.688 -4.078,-2.879 -6,-4.082 -1.921,-1.199 -1.679,-1.199 -1.921,-3.602 0,-0.722 -1.918,-2.402 -3.118,-2.402 -5.281,-2.16 -9.601,-5.039 -14.6402,-6.719 -5.2813,-2.637 -10.0821,-4.316 -15.3594,-6.719 -1.4414,-0.722 -2.8828,-1.445 -4.5625,-2.16 -1.4414,-1.199 -2.4024,-1.922 -1.4414,-4.0818 1.1992,-2.6484 1.4414,-6.2461 1.4414,-9.125 0.7187,-4.8047 0.7187,-9.3633 0.7187,-13.9258 0,-1.4336 -0.7187,-2.6367 0,-4.3164 1.918,-6.7187 1.6797,-13.6797 1.918,-20.6445 0,-6.9609 1.9258,-13.9141 2.6406,-20.8789 -0.2383,-0.957 -0.2383,-1.6797 0,-2.4023 0.2422,-2.1602 0.2422,-4.5586 0.7188,-6.9649 0.7226,-3.1133 0.4843,-5.7578 -0.7188,-8.1523 -0.2383,-0.7227 -0.2383,-1.9258 0.2422,-2.64457 1.1992,-1.67969 2.1602,-2.63672 0.2383,-4.5625 C 84.6992,4.60547 84.6992,3.40234 84.4609,2.44531 83.7383,0.523438 82.7813,-0.191406 80.8633,0.0429688 c -3.1211,0.2421872 -6,0.4804692 -8.4024,2.4023412 -0.7187,0.95703 -2.4023,1.20313 -3.6015,1.20313 -5.043,0.47656 -8.1641,2.8789 -8.6406,7.19536 -1.918,8.6406 -3.3594,17.2851 -4.5625,25.6835 -1.1993,6.2422 -2.1563,12.4805 -2.3946,18.4883 -0.9648,5.7617 -1.4414,11.5117 -1.6875,17.7539 -0.7148,4.8008 -0.957,9.8399 -1.1953,14.8828 0,1.6758 -1.1992,2.4024 -2.8789,1.4454 -1.9219,-0.7266 -4.082,-0.9688 -5.7617,-2.8829 -0.2422,-0.7226 -2.1602,-1.6796 -2.8828,-1.4453 -1.1992,1.2032 -1.918,2.4024 -1.6797,3.6016 0,1.2031 0.7226,3.125 1.6797,4.082 2.6406,2.1602 5.2851,4.3203 9.1211,6.0039 1.9179,1.1993 2.6406,2.156 2.6406,4.324 -0.2383,0.957 0,2.395 0.2422,3.594 0.7148,1.203 1.6797,2.168 0,3.125 0,0.234 0,0.234 0,0.234 2.4023,2.168 -0.9649,4.329 -0.7188,6.485 0.4766,2.16 0.7188,4.562 1.1953,6.965 0,1.433 0,2.879 0.2383,4.316 0,3.836 -0.2383,8.164 0.7227,12.246 1.2031,4.559 0.9648,9.832 1.4414,14.883 1.2031,7.43 3.1211,15.117 4.082,23.035 0.7188,1.445 0.7188,3.606 0.957,6.008 0.2383,1.914 0.4805,3.836 1.4415,5.273 0.2382,3.36 3.121,4.805 5.7617,5.528 2.6406,0.957 7.6797,-1.203 8.3984,-3.371 1.6797,-3.594 3.1211,-6.719 4.082,-10.079 0.7188,-2.402 0.7188,-4.316 1.6797,-6.472 0,-0.969 -0.7187,-1.926 -0.7187,-2.649 0.7187,-1.679 0.957,-3.359 0.7187,-4.793 -0.9609,-3.359 0.961,-6.484 0.7227,-9.609 0,-3.117 0,-6.719 -3.1211,-9.836 -1.6836,-1.922 -1.4414,-8.641 0.2383,-10.566 0.4804,-0.711 0.957,-1.434 0.4804,-2.637 0,-2.402 -0.4804,-4.805 -0.7187,-7.195 0,-0.489 -0.2422,-1.203 0,-1.68 1.1953,-2.168 1.4375,-4.805 1.1953,-7.207 0,0 1.6797,-0.234 1.6797,0 8.8828,6.004 18.7266,11.523 24.7228,20.398 4.082,5.286 6.965,10.801 8.164,16.809 1.203,5.516 -1.918,10.555 -4.082,15.359 -2.641,5.762 -6.719,10.325 -10.8009,14.883 -2.8789,3.594 -6.4805,6.477 -11.5195,8.156 -6.7227,1.922 -12.7227,4.805 -19.4414,5.282 -1.4414,0.246 -2.8829,0.246 -5.0391,0.246 -9.3594,0 -19.6836,-0.723 -29.5273,-0.969" /><path
         id="path16"
         style="fill:#421e16;fill-opacity:1;fill-rule:nonzero;stroke:none"
         d="m 231.824,154.863 c -0.242,0.242 -0.242,0.242 -0.488,0.242 0,0 -0.234,-0.242 -0.477,-0.242 0.243,0 0.243,-0.234 0.477,-0.234 0,0 0.246,0.234 0.488,0.234 z m -2.168,-12.726 c 0.246,-0.235 1.68,-0.235 1.926,0 0.711,0.488 1.68,1.691 1.68,2.168 0,0 -0.723,0.957 -1.438,0.957 -2.168,0.48 -2.644,1.437 -0.722,2.636 0.48,0.723 0.722,1.926 1.437,2.883 0,0.477 -0.715,0.965 -0.957,0.965 -2.402,0.481 -6.008,-2.402 -6.008,-5.281 0.957,-1.203 2.637,-2.637 4.082,-4.328 z M 213.34,125.34 c -0.246,0 -0.246,0 -0.246,0 0,0 0.246,0 0.246,-0.242 0,0.242 0,0.242 0,0.242 z m 8.64,14.64 c -0.488,0.965 -0.722,2.157 -1.445,2.157 -1.68,0.246 -2.402,-0.235 -2.402,-2.157 0,-0.48 0.246,-1.203 -0.235,-1.437 -2.878,-2.156 -3.847,-5.039 -4.558,-7.918 -0.246,-0.969 -1.68,-1.926 0,-2.16 1.68,-0.242 3.836,-0.965 4.558,0.715 0.235,3.847 5.04,6.484 3.125,10.8 0.235,0 0.469,0 0.957,0 z m -38.886,-30.246 c 4.316,3.125 8.886,6.008 12.715,9.368 3.847,3.601 8.886,6.484 11.523,10.8 0.957,2.637 2.891,5.039 4.328,7.196 0,0.722 0.242,0.722 0.242,1.445 0,0.234 0,0.48 0,0.957 -0.242,-0.234 -0.722,-0.234 -0.722,-0.477 -3.602,-4.082 -6.485,-8.164 -10.801,-11.757 -0.957,-0.489 -1.199,-1.203 -1.68,-2.168 -0.488,-1.68 -1.679,-2.16 -3.359,-2.395 -2.645,-0.965 -5.281,-2.402 -6.25,-4.324 -0.711,-1.203 -0.957,-1.438 -2.149,-1.914 -2.89,0 -6.003,-3.125 -6.484,-5.527 0,-0.715 0.481,-1.204 0.957,-1.915 0.481,0.711 0.957,0.711 1.68,0.711 z M 173.016,23.5664 c 0.48,0 0,0 0,0 -0.243,0 -0.243,0 -0.243,-0.2422 h 0.243 c 0,0.2422 0,0.2422 0,0.2422 z m -2.168,18.9649 c -0.235,-0.9649 -0.711,-1.9219 -1.192,-2.6446 -0.488,-0.4804 0,-0.7226 0.481,-1.4375 0.476,0.7149 1.433,0.7149 2.39,1.6836 -0.711,0.7227 -0.957,1.4336 -1.679,2.3985 z m 0.722,5.5195 c 0,0.2344 -0.957,0.957 -0.957,1.2031 -0.476,-0.2461 -1.445,-0.7266 -1.445,-0.9687 -0.234,-0.7149 0,-1.1914 0.488,-1.6797 0.957,0.4883 1.438,0.7226 1.914,1.4453 z m -3.113,5.9961 v 0.2422 z m 0.477,3.3594 c 0,0 0,0.246 0,0 -0.477,0 -0.477,0 -0.477,-0.2344 0,0 0,0 0.477,-0.4805 0,0.4805 0,0.4805 0,0.7149 z m -1.446,35.7734 0.246,0.4766 c 0,0 0,0 -0.246,0.2343 v -0.2343 c 0,0 0,0 0,-0.4766 z m 0,-62.6484 c 0.246,0 0.246,0 0.723,0 -0.477,0.4804 -0.477,0.7109 -0.723,0.7109 0,0 -0.468,0 -0.468,-0.2305 z m -0.722,48.4765 c -0.235,0 -0.469,-0.2344 -0.469,-0.2344 0.234,-0.4765 0.469,-0.4765 0.469,-0.4765 0.254,0 0.254,0.4765 0.722,0.4765 -0.468,0.2344 -0.722,0.2344 -0.722,0.2344 z m -0.469,85.9332 h 0.234 z m 0,-42.238 c 0.234,0 0,0 0,0 h -0.488 c 0,0 0,0 0.488,-0.242 0,0 0,0 0,0.242 z m 0,37.676 c -0.488,0.246 -0.488,0.246 -0.723,0.723 0,0 -0.488,-0.477 -0.488,-0.723 0,0 0,-0.234 0.488,-0.477 0.235,0.243 0.235,0.477 0.723,0.477 z M 164.852,39.8867 v 0.7227 c -0.235,-0.4766 -0.723,-0.4766 -0.723,-0.4766 0,-0.2461 0,-0.7265 0,-0.9687 0.488,0.2422 0.723,0.2422 0.723,0.7226 z m -0.723,4.8047 v 0.2344 z m 0,110.4136 c 0,0 0,-0.242 0,-0.476 -0.477,-0.246 0,-0.246 0,-0.723 0,0.477 0,0.477 0.723,0.957 -0.235,0 -0.235,0.242 -0.723,0.242 z m 2.168,-24.246 c -0.488,0.477 -0.723,0.477 -0.723,0.477 -0.722,0 -0.957,-0.477 -1.922,-0.711 0.477,-0.246 0.477,-0.246 0.477,-0.969 0.723,0.723 0.957,0.969 2.168,1.203 z m -2.891,-43.6871 v -0.2344 z m 0.723,61.4491 c 0.488,0.481 0,0.957 0,0.957 -0.723,0 -0.957,-0.234 -1.434,-0.476 0,-0.481 0.477,-0.481 0.711,-1.204 0.723,0.489 0.723,0.723 0.723,0.723 z m 0.723,-92.8944 c -0.723,0 -1.68,0 -2.157,0 -0.722,-0.711 -0.968,-1.6797 -0.968,-2.3907 0,-0.9687 0.246,-1.9257 0.488,-2.8828 0.48,-1.1992 0.48,-2.4023 1.437,-3.3593 0.477,-0.4883 1.434,-0.9649 1.434,0.2343 0.488,2.1563 0.488,4.0821 0.723,6.7188 0,0.2422 -0.235,0.9687 -0.957,1.6797 z m 0,64.5744 c -0.723,0.234 -1.2,0.48 -1.68,0.957 -0.477,0 -1.445,-0.477 -1.68,-0.723 0.235,0 0.723,-0.476 1.203,-0.957 0.957,0.481 1.434,0.481 2.157,0.723 z m -2.879,7.199 c 0.242,0.242 0.722,0.723 1.199,0.723 0,0.242 -0.477,0.722 -0.477,0.476 -0.722,0 -0.968,-0.234 -1.203,-0.476 0.235,-0.481 0.481,-0.723 0.481,-0.723 z m 2.156,-64.8086 c -0.477,0.2422 -0.957,0.7188 -1.914,0.7188 -0.242,0 -0.488,-0.4766 -0.957,-0.7188 0.234,0 0.715,-0.2383 0.957,-0.2383 0.957,0.2383 1.437,0 1.914,0.2383 z m -2.871,72.2496 c 0,0.243 -0.488,0 -0.488,-0.48 0.488,0 0.488,-0.242 0.722,-0.242 0,0 0.235,0 0.481,0.242 -0.246,0.48 -0.481,0.48 -0.715,0.48 z m 6.476,-66.2457 c 0.723,0.2344 0.723,0.957 1.2,1.1914 -0.477,0 -1.2,0.2461 -1.914,0.2461 -1.446,0 -2.891,0 -3.848,0.4766 -1.199,-0.4766 -1.914,0 -2.637,-0.4766 -0.488,0 -0.488,-1.2031 0,-1.4375 0,-0.4883 0.957,-0.7226 1.438,-1.2031 2.156,0.2383 3.836,0.7148 5.761,1.2031 z m -6.007,44.8867 c 0.488,0.481 1.445,0.481 1.925,1.203 0.965,0.711 2.157,0.957 3.368,1.434 -1.211,0.246 -2.403,0.722 -3.614,0.957 -0.711,0 -1.433,0 -1.679,0 -0.469,-0.711 -1.914,-1.434 -1.914,-1.68 0,-2.391 0.234,-2.879 1.914,-1.914 z m -1.68,-40.0937 c 0,-1.4336 1.211,-1.9141 1.926,-0.4766 1.199,0.7227 2.156,0.7227 3.113,1.4336 0.488,0.2461 1.211,0.7266 1.445,0.7266 -0.234,0 -0.722,0.7226 -0.957,0.7226 -1.922,0.7188 -3.601,1.4336 -2.879,3.6016 0.711,1.1914 0.711,2.3945 2.391,3.8398 1.934,1.4336 3.848,3.6016 3.371,6.2383 -0.246,0.4805 -1.691,0.7227 -1.691,0.7227 -1.192,-2.168 -2.637,-1.9258 -5.039,-0.2422 -0.235,0.2422 -0.957,0 -1.68,0 0.488,-0.4805 0.488,-0.957 0.488,-1.2031 -0.488,-1.9141 -0.488,-3.3594 -0.488,-5.0391 -0.234,-0.957 -0.711,-1.4336 -0.711,-2.1602 0.477,-2.8789 0.477,-5.5234 0.711,-8.164 z m 1.926,33.1327 c -0.246,2.402 1.433,1.922 2.644,1.199 1.192,-0.476 1.192,-0.242 0.957,0.957 0,0.723 0.723,1.446 0.723,1.68 0,0.481 -0.723,1.203 -1.211,1.203 -1.434,0.242 -5.273,-1.437 -6.231,-2.883 -0.957,-1.199 0,-3.601 2.403,-3.601 0,0.242 0.715,1.199 0.715,1.445 z M 150.215,91.0117 c 0.719,0.4844 0.957,0.9649 1.437,1.1992 -0.48,0.2422 -0.48,0.2422 -0.48,0.2422 -0.719,0 -0.957,-0.2422 -1.918,-0.7187 0.476,-0.2383 0.961,-0.7227 0.961,-0.7227 z M 136.051,198.543 c -2.16,0.246 -4.563,-0.234 -6.242,0 -2.161,0.246 -4.801,-0.711 -6.243,2.168 -0.476,0.957 -3.597,1.191 -5.277,0.957 -3.598,0.234 -6.961,-0.723 -10.32,-0.723 -1.68,0 -3.602,1.203 -4.563,1.926 -0.718,0.711 -0.476,2.156 0,3.359 1.918,3.36 5.762,5.04 10.324,5.04 6.958,0 13.918,0.476 20.879,0.96 10.321,0 20.887,0.719 31.2,-0.96 8.164,-0.961 16.086,-2.883 24.25,-4.563 2.636,-1.434 6.238,-1.922 8.64,-4.316 0,-0.243 0,-0.489 0.481,-0.489 6.472,-0.234 10.32,-5.273 15.84,-7.429 2.644,-0.723 3.835,-3.125 6.238,-5.051 0.234,-0.477 0.722,-0.711 0.957,-0.711 3.605,-1.445 5.762,-5.039 8.398,-7.688 0.489,-0.234 0.969,-1.199 1.211,-2.156 0.469,-1.445 0,-3.125 0.469,-4.804 0,-0.958 0,-2.161 0,-3.118 0.246,-0.722 0.723,-1.445 0.969,-2.156 1.922,-1.445 3.113,-3.125 2.39,-5.527 0,-0.481 0.723,-1.203 0.723,-1.68 0.246,-1.437 2.168,-1.914 1.211,-3.359 -0.723,-0.235 -0.723,-0.723 0,-0.723 2.394,-2.395 0.957,-4.551 -0.723,-6.953 -0.488,-1.203 -1.211,-2.16 -0.488,-3.848 1.211,-2.16 0,-4.074 -1.434,-5.039 -0.722,-0.957 -1.679,-2.16 -1.679,-2.883 0,-4.316 -1.926,-7.441 -5.285,-10.312 -2.157,-1.688 -4.082,-2.879 -5.997,-4.082 -1.921,-1.199 -1.679,-1.199 -1.921,-3.602 0,-0.722 -1.926,-2.402 -3.118,-2.402 -5.281,-2.16 -9.609,-5.039 -14.648,-6.719 -5.273,-2.637 -10.078,-4.316 -15.352,-6.719 -1.445,-0.722 -2.89,-1.445 -4.57,-2.16 -1.433,-1.199 -2.402,-1.922 -1.433,-4.0818 1.199,-2.6484 1.433,-6.2461 1.433,-9.125 0.723,-4.8047 0.723,-9.3633 0.723,-13.9258 0,-1.4336 -0.723,-2.6367 0,-4.3164 1.914,-6.7187 1.679,-13.6797 1.914,-20.6445 0,-6.9609 1.933,-13.9141 2.648,-20.8789 -0.246,-0.957 -0.246,-1.6797 0,-2.4023 0.242,-2.1602 0.242,-4.5586 0.723,-6.9649 0.711,-3.1133 0.476,-5.7578 -0.723,-8.1523 -0.246,-0.7227 -0.246,-1.9258 0.242,-2.64457 1.192,-1.67969 2.161,-2.63672 0.235,-4.5625 -0.477,-0.47656 -0.477,-1.67969 -0.723,-2.63672 -0.722,-1.921872 -1.68,-2.636716 -3.594,-2.4023412 -3.125,0.2421872 -5.996,0.4804692 -8.398,2.4023412 -0.723,0.95703 -2.402,1.20313 -3.602,1.20313 -5.05,0.47656 -8.164,2.8789 -8.644,7.19536 -1.914,8.6406 -3.359,17.2851 -4.559,25.6835 -1.203,6.2422 -2.16,12.4805 -2.394,18.4883 -0.965,5.7617 -1.446,11.5117 -1.688,17.7539 -0.715,4.8008 -0.957,9.8399 -1.195,14.8828 0,1.6758 -1.203,2.4024 -2.883,1.4454 -1.918,-0.7266 -4.082,-0.9688 -5.762,-2.8829 -0.238,-0.7226 -2.16,-1.6796 -2.882,-1.4453 -1.2,1.2032 -1.918,2.4024 -1.676,3.6016 0,1.2031 0.719,3.125 1.676,4.082 2.644,2.1602 5.285,4.3203 9.125,6.0039 1.918,1.1993 2.64,2.156 2.64,4.324 -0.238,0.957 0,2.395 0.242,3.594 0.715,1.203 1.68,2.168 0,3.125 0,0.234 0,0.234 0,0.234 2.403,2.168 -0.964,4.329 -0.722,6.485 0.48,2.16 0.722,4.562 1.191,6.965 0,1.433 0,2.879 0.246,4.316 0,3.836 -0.246,8.164 0.723,12.246 1.199,4.559 0.965,9.832 1.434,14.883 1.21,7.43 3.125,15.117 4.082,23.035 0.722,1.445 0.722,3.606 0.957,6.008 0.246,1.914 0.488,3.836 1.445,5.273 0.234,3.36 3.125,4.805 5.762,5.528 2.636,0.957 7.675,-1.203 8.398,-3.371 1.68,-3.594 3.125,-6.719 4.082,-10.079 0.723,-2.402 0.723,-4.316 1.68,-6.472 0,-0.969 -0.723,-1.926 -0.723,-2.649 0.723,-1.679 0.957,-3.359 0.723,-4.793 -0.957,-3.359 0.957,-6.484 0.722,-9.609 0,-3.117 0,-6.719 -3.125,-9.836 -1.679,-1.922 -1.433,-8.641 0.247,-10.566 0.476,-0.711 0.957,-1.434 0.476,-2.637 0,-2.402 -0.476,-4.805 -0.723,-7.195 0,-0.489 -0.234,-1.203 0,-1.68 1.204,-2.168 1.446,-4.805 1.204,-7.207 0,0 1.679,-0.234 1.679,0 8.875,6.004 18.719,11.523 24.715,20.398 4.082,5.286 6.973,10.801 8.164,16.809 1.211,5.516 -1.914,10.555 -4.082,15.359 -2.637,5.762 -6.719,10.325 -10.801,14.883 -2.871,3.594 -6.472,6.477 -11.511,8.156 -6.731,1.922 -12.727,4.805 -19.446,5.282 -1.445,0.246 -2.879,0.246 -5.039,0.246 -9.355,0 -19.683,-0.723 -29.523,-0.969" /><path
         id="path18"
         style="fill:#421e16;fill-opacity:1;fill-rule:nonzero;stroke:none"
         d="m 249.324,64.6133 c -0.234,-0.2461 -0.711,-0.9649 -0.957,-1.6797 0,0 0.723,-0.4805 1.203,-0.7227 0,0.4805 0,0.7227 0,1.1993 0,0.4804 0,0.957 -0.246,1.2031 z m -1.433,101.7737 c 0,2.636 1.922,5.281 3.113,7.918 0.246,0.246 1.211,0.48 1.926,0.48 6.238,-1.203 12,-4.082 16.082,-8.879 1.445,-1.922 1.679,-4.082 0.234,-6.484 -0.957,-1.434 -1.68,-2.637 -1.191,-4.793 0.234,-1.68 -0.723,-3.848 -0.957,-5.527 0,-0.481 -0.489,-0.715 -0.965,-0.957 -3.36,-1.926 -5.039,-5.04 -6.477,-8.399 -1.211,-2.402 -1.679,-5.527 -3.125,-8.164 -0.234,-0.723 -1.199,-1.926 -2.168,-2.16 -0.468,0 -1.679,1.203 -2.148,1.914 -0.488,1.203 -0.965,2.402 -1.211,3.848 -0.957,4.562 -1.434,9.121 -2.391,13.918 -0.246,5.761 -0.968,11.523 -0.722,17.285 z m -6.719,-97.4573 c 0.476,7.6836 0.711,23.0469 1.433,30.25 0.723,7.6753 2.891,14.6363 6.965,21.3553 1.68,3.125 4.793,2.883 7.918,3.125 h 0.246 c 5.039,-0.957 4.793,-0.957 5.282,-5.996 0.468,-3.367 1.437,-6.484 1.914,-9.609 0.234,-1.68 0,-3.36 -0.235,-5.039 -0.242,-2.879 0.235,-13.2074 0.235,-16.0785 0,-0.4883 0,-0.9648 0,-1.4453 -2.157,-5.9961 0,-12.0039 -0.723,-18.2422 -0.234,-1.1992 -0.723,-2.6367 -0.723,-4.082 0,-1.1992 0.489,-2.3907 0.723,-3.8399 0,0 0.246,-0.2422 0.246,-0.4765 -0.246,-3.125 -0.246,-6.4844 -0.715,-9.5977 -0.254,-2.6484 -0.965,-5.0391 -0.965,-7.6875 -0.48,-1.9141 -1.437,-3.5937 -3.117,-4.793 -2.168,-1.4492 -4.57,-2.6484 -6.726,-4.3281 -4.563,-3.3594 -11.758,-0.2344 -13.196,4.3281 -0.488,2.1563 -0.722,4.5586 -1.445,7.4414 0.723,7.918 1.68,16.3165 2.883,24.7149" /></g></g></svg>